<?xml version="1.0" encoding="utf-8"?>
<!-- Generator: Adobe Illustrator 23.0.3, SVG Export Plug-In . SVG Version: 6.00 Build 0)  -->
<svg version="1.1" id="Layer_1" xmlns="http://www.w3.org/2000/svg" xmlns:xlink="http://www.w3.org/1999/xlink" x="0px" y="0px"
	 viewBox="0 0 500 500" style="enable-background:new 0 0 500 500;" xml:space="preserve">
<style type="text/css">
	.st0{fill:none;stroke:#BA3431;stroke-width:21.1681;stroke-miterlimit:10;}
	.st1{fill:url(#SVGID_1_);}
	.st2{opacity:9.000000e-02;}
	.st3{opacity:0.11;}
</style>
<path class="st0" d="M302.2,164.8c82-17.9,146.2-13.6,155.6,14c12.2,35.5-70.9,96.2-185.6,135.4S54.8,356.6,42.6,321
	c-9-26.2,34-66.1,103.2-101"/>
<radialGradient id="SVGID_1_" cx="360.732" cy="232.3581" r="238.1375" gradientUnits="userSpaceOnUse">
	<stop  offset="0.3678" style="stop-color:#FAC23C"/>
	<stop  offset="0.5259" style="stop-color:#C69B33"/>
	<stop  offset="0.7524" style="stop-color:#826828"/>
	<stop  offset="0.9165" style="stop-color:#574721"/>
	<stop  offset="1" style="stop-color:#473B1E"/>
</radialGradient>
<circle class="st1" cx="250.2" cy="249.9" r="183.9"/>
<g class="st2">
	<image style="overflow:visible;" width="443" height="443" xlink:href="56D8D9AC.png"  transform="matrix(1 0 0 1 29 28)">
	</image>
</g>
<path class="st0" d="M457.8,178.7c12.2,35.5-70.9,96.2-185.6,135.4S54.8,356.6,42.6,321"/>
<path class="st0" d="M457.8,178.7c12.2,35.5-70.9,96.2-185.6,135.4S54.8,356.6,42.6,321"/>
<path class="st0" d="M457.8,178.7c12.2,35.5-70.9,96.2-185.6,135.4S54.8,356.6,42.6,321"/>
<g class="st3">
	<image style="overflow:visible;" width="512" height="286" xlink:href="56D8D9AB.png"  transform="matrix(1 0 0 1 -6 107)">
	</image>
</g>
</svg>
